<svg width="24" height="24" viewBox="0 0 24 24" fill="none" xmlns="http://www.w3.org/2000/svg">
<path d="M12 22.001C13.1 22.001 14 21.101 14 20.001H10C10 21.101 10.9 22.001 12 22.001ZM18 16.001V11.001C18 7.93098 16.37 5.36098 13.5 4.68098V4.00098C13.5 3.17098 12.83 2.50098 12 2.50098C11.17 2.50098 10.5 3.17098 10.5 4.00098V4.68098C7.64 5.36098 6 7.92098 6 11.001V16.001L4 18.001V19.001H20V18.001L18 16.001ZM16 17.001H8V11.001C8 8.52098 9.51 6.50098 12 6.50098C14.49 6.50098 16 8.52098 16 11.001V17.001Z" fill="#1A1A1A"/>
</svg>
