<svg width="2947" height="485" viewBox="0 0 2947 485" fill="none" xmlns="http://www.w3.org/2000/svg">
<path d="M490.226 332.966H96.4739C88.1099 332.966 81.3296 339.741 81.3296 348.099V408.632C81.3296 416.99 88.1099 423.766 96.4739 423.766H490.226C498.59 423.766 505.371 416.99 505.371 408.632V348.099C505.371 339.741 498.59 332.966 490.226 332.966Z" fill="#0553B1"/>
<path d="M556.174 65.7286L198.232 2.65962C189.995 1.20828 182.14 6.70423 180.688 14.9352L133.351 283.197C131.899 291.428 137.399 299.277 145.636 300.728L503.578 363.797C511.815 365.248 519.669 359.753 521.122 351.522L568.458 83.2599C569.91 75.029 564.41 67.18 556.174 65.7286Z" fill="#08589C"/>
<path d="M15.382 126.262L373.324 63.1928C381.561 61.7415 389.416 67.2374 390.868 75.4684L438.204 343.73C439.657 351.961 434.157 359.81 425.92 361.261L67.9777 424.33C59.7408 425.782 51.886 420.286 50.4336 412.055L3.09756 143.793C1.64517 135.562 7.14513 127.713 15.382 126.262Z" fill="#44D1FD"/>
<path d="M51.041 170.39C51.041 159.883 59.229 151.365 69.3282 151.365H517.37C527.471 151.365 535.659 159.883 535.659 170.39V465.274C535.659 475.781 527.471 484.299 517.37 484.299H69.3282C59.229 484.299 51.041 475.781 51.041 465.274V170.39Z" fill="#027DFD"/>
<path d="M308.495 230.815H425.322C427.712 230.815 429.649 233.235 429.649 236.22V263.244C429.649 266.229 427.712 268.648 425.322 268.648H308.495V230.815Z" fill="white"/>
<path d="M308.495 298.915H485.176C487.963 298.915 490.227 301.335 490.227 304.32V331.344C490.227 334.329 487.963 336.748 485.176 336.748H308.495V298.915Z" fill="white"/>
<path d="M308.495 367.015H455.205C457.819 367.015 459.938 369.435 459.938 372.42V399.444C459.938 402.429 457.819 404.848 455.205 404.848H308.495V367.015Z" fill="white"/>
<path d="M192.952 235.918L247.698 235.862L155.848 321.046L131.911 343.134L104.674 317.831L192.952 235.918ZM192.442 311.977C193.153 311.107 194.46 311.536 195.452 311.424L247.652 311.437L200.078 355.537L172.701 330.289L192.442 311.977Z" fill="white"/>
<path d="M145.412 355.581L172.701 330.29L200.078 355.538L200.192 355.65L172.708 380.916L145.412 355.581Z" fill="white"/>
<path d="M172.706 380.916L200.189 355.65L247.67 399.751C229.786 399.788 211.907 399.739 194.029 399.775C193.011 399.987 192.38 399.123 191.73 398.588L172.706 380.916Z" fill="white"/>
<path d="M722.117 186.457H827.52V212.365H749.252V262.244H819.765V287.911H749.252V359.824H722.117V186.457ZM853.44 186.457H880.093V359.824H853.44V186.457ZM957.994 363.698C942.975 363.698 931.5 359.26 923.587 350.381C915.831 341.342 911.954 328.831 911.954 312.85V236.336H938.614V309.218C938.614 319.226 940.953 326.733 945.637 331.737C950.48 336.741 956.788 339.243 964.535 339.243C970.842 339.243 976.409 337.629 981.26 334.4C986.103 331.01 989.822 326.572 992.402 321.083C994.99 315.594 996.279 309.703 996.279 303.407V236.336H1022.93V359.824H997.736V343.844H996.279C992.884 349.655 987.642 354.417 980.528 358.13C973.421 361.842 965.908 363.698 957.994 363.698ZM1107.3 361.762C1101.81 361.762 1096.64 360.874 1091.79 359.098C1086.95 357.322 1082.98 354.982 1079.91 352.076C1072.97 345.135 1069.5 335.692 1069.5 323.746V259.823H1047.94V236.336H1069.5V201.469H1096.15V236.336H1148.25V201.469H1174.9V236.336H1204.95V259.823H1174.9V317.935C1174.9 324.554 1176.2 329.235 1178.78 331.979C1181.21 335.208 1185.4 336.822 1191.38 336.822C1194.13 336.822 1196.55 336.499 1198.65 335.853C1200.75 335.046 1203.01 333.836 1205.44 332.221V358.13C1199.94 360.551 1193.48 361.762 1186.05 361.762C1180.56 361.762 1175.39 360.874 1170.54 359.098C1165.7 357.322 1161.74 354.982 1158.66 352.076C1151.72 345.135 1148.25 335.692 1148.25 323.746V259.823H1096.15V317.935C1096.15 324.554 1097.45 329.235 1100.03 331.979C1102.46 335.208 1106.57 336.822 1112.38 336.822C1116.59 336.822 1120.87 335.45 1125.23 332.706V358.614C1122.64 359.744 1119.98 360.551 1117.23 361.035C1114.65 361.519 1111.33 361.762 1107.3 361.762ZM1283.58 363.698C1271.46 363.698 1260.56 360.874 1250.87 355.224C1241.34 349.574 1233.83 341.826 1228.34 331.979C1223 321.971 1220.34 310.752 1220.34 298.322C1220.34 286.538 1222.92 275.642 1228.1 265.634C1233.42 255.465 1240.78 247.394 1250.15 241.421C1259.52 235.448 1270.18 232.462 1282.12 232.462C1294.56 232.462 1305.31 235.206 1314.35 240.695C1323.56 246.183 1330.51 253.689 1335.2 263.213C1340.04 272.737 1342.46 283.472 1342.46 295.417C1342.46 297.677 1342.22 300.502 1341.74 303.892H1246.99C1247.97 315.352 1252 324.231 1259.11 330.526C1266.38 336.66 1274.78 339.727 1284.31 339.727C1291.9 339.727 1298.44 338.032 1303.93 334.642C1309.59 331.091 1314.11 326.329 1317.51 320.356L1340.04 331.01C1334.22 341.18 1326.63 349.17 1317.26 354.982C1307.89 360.793 1296.67 363.698 1283.58 363.698ZM1315.33 283.552C1315 279.194 1313.63 274.916 1311.21 270.719C1308.78 266.361 1305.07 262.729 1300.06 259.823C1295.21 256.918 1289.24 255.465 1282.12 255.465C1273.57 255.465 1266.3 258.048 1260.32 263.213C1254.51 268.217 1250.46 274.997 1248.21 283.552H1315.33ZM1368.25 236.336H1393.69V254.496H1394.91C1397.65 248.201 1402.41 243.036 1409.2 239C1415.99 234.803 1423.17 232.704 1430.76 232.704C1436.75 232.704 1441.75 233.512 1445.79 235.126V262.729C1438.68 260.146 1432.3 258.855 1426.64 258.855C1420.51 258.855 1415.01 260.469 1410.17 263.698C1405.48 266.926 1401.77 271.284 1399.03 276.772C1396.28 282.1 1394.91 287.992 1394.91 294.448V359.824H1368.25V236.336ZM1530.4 186.457H1562.63L1640.16 312.608H1641.62L1640.16 279.194V186.457H1667.06V359.824H1638.71L1557.29 227.135H1555.84L1557.29 260.55V359.824H1530.4V186.457ZM1760.29 363.698C1748.18 363.698 1737.28 360.874 1727.58 355.224C1718.06 349.574 1710.54 341.826 1705.05 331.979C1699.72 321.971 1697.05 310.752 1697.05 298.322C1697.05 286.538 1699.64 275.642 1704.81 265.634C1710.14 255.465 1717.49 247.394 1726.86 241.421C1736.23 235.448 1746.89 232.462 1758.85 232.462C1771.28 232.462 1782.02 235.206 1791.07 240.695C1800.28 246.183 1807.22 253.689 1811.91 263.213C1816.75 272.737 1819.18 283.472 1819.18 295.417C1819.18 297.677 1818.93 300.502 1818.45 303.892H1723.71C1724.68 315.352 1728.72 324.231 1735.82 330.526C1743.09 336.66 1751.49 339.727 1761.03 339.727C1768.61 339.727 1775.16 338.032 1780.65 334.642C1786.31 331.091 1790.82 326.329 1794.22 320.356L1816.75 331.01C1810.94 341.18 1803.35 349.17 1793.98 354.982C1784.61 360.793 1773.38 363.698 1760.29 363.698ZM1792.04 283.552C1791.71 279.194 1790.34 274.916 1787.92 270.719C1785.5 266.361 1781.78 262.729 1776.78 259.823C1771.93 256.918 1765.95 255.465 1758.85 255.465C1750.28 255.465 1743.01 258.048 1737.04 263.213C1731.22 268.217 1727.18 274.997 1724.92 283.552H1792.04ZM1828.78 236.336H1857.63L1882.58 324.715H1883.55L1911.41 236.336H1938.8L1966.41 324.715H1967.39L1992.34 236.336H2020.69L1981.2 359.824H1953.09L1924.74 271.204H1924.01L1895.91 359.824H1868.28L1828.78 236.336ZM2084.4 363.698C2070.19 363.698 2058.55 360.632 2049.51 354.498C2040.46 348.202 2034.08 340.212 2030.37 330.526L2054.11 320.114C2057.02 326.572 2061.06 331.495 2066.23 334.884C2071.56 338.274 2077.62 339.97 2084.4 339.97C2091.02 339.97 2096.6 338.84 2101.12 336.58C2105.64 334.158 2107.91 330.607 2107.91 325.926C2107.91 321.406 2105.97 317.854 2102.09 315.272C2098.21 312.689 2092.24 310.429 2084.16 308.492L2069.38 304.86C2059.53 302.439 2051.36 298.161 2044.91 292.027C2038.44 285.893 2035.21 278.145 2035.21 268.782C2035.21 261.518 2037.31 255.142 2041.51 249.654C2045.87 244.165 2051.69 239.968 2058.96 237.063C2066.23 233.996 2074.15 232.462 2082.71 232.462C2094.18 232.462 2104.27 234.803 2113 239.484C2121.72 244.004 2128.02 250.622 2131.9 259.339L2108.63 269.508C2103.95 259.985 2095.39 255.223 2082.95 255.223C2076.97 255.223 2071.97 256.434 2067.92 258.855C2063.89 261.276 2061.87 264.424 2061.87 268.298C2061.87 272.01 2063.4 275.078 2066.48 277.499C2069.54 279.759 2074.06 281.696 2080.04 283.31L2098.21 287.911C2110.33 290.978 2119.46 295.659 2125.6 301.954C2131.9 308.088 2135.04 315.676 2135.04 324.715C2135.04 332.463 2132.79 339.324 2128.26 345.296C2123.9 351.108 2117.84 355.628 2110.09 358.856C2102.33 362.084 2093.77 363.698 2084.4 363.698ZM2247.73 212.365H2199.27V186.457H2323.34V212.365H2274.88V359.824H2247.73V212.365ZM2385.27 363.698C2372.83 363.698 2361.69 360.874 2351.83 355.224C2341.98 349.412 2334.31 341.503 2328.81 331.495C2323.32 321.486 2320.58 310.348 2320.58 298.08C2320.58 285.812 2323.32 274.674 2328.81 264.666C2334.31 254.658 2341.98 246.829 2351.83 241.179C2361.69 235.368 2372.83 232.462 2385.27 232.462C2397.71 232.462 2408.85 235.368 2418.71 241.179C2428.57 246.99 2436.24 254.9 2441.73 264.908C2447.22 274.916 2449.97 285.974 2449.97 298.08C2449.97 310.348 2447.22 321.486 2441.73 331.495C2436.24 341.503 2428.57 349.412 2418.71 355.224C2408.85 360.874 2397.71 363.698 2385.27 363.698ZM2385.27 339.243C2392.05 339.243 2398.35 337.629 2404.17 334.4C2409.99 331.01 2414.59 326.248 2417.98 320.114C2421.53 313.819 2423.32 306.474 2423.32 298.08C2423.32 289.686 2421.53 282.422 2417.98 276.288C2414.59 270.154 2409.99 265.473 2404.17 262.244C2398.35 258.855 2392.05 257.16 2385.27 257.16C2378.49 257.16 2372.18 258.855 2366.37 262.244C2360.56 265.473 2355.87 270.154 2352.32 276.288C2348.93 282.422 2347.23 289.686 2347.23 298.08C2347.23 306.474 2348.93 313.819 2352.32 320.114C2355.87 326.248 2360.56 331.01 2366.37 334.4C2372.18 337.629 2378.49 339.243 2385.27 339.243ZM2533.97 363.698C2521.53 363.698 2510.39 360.874 2500.53 355.224C2490.67 349.412 2483 341.503 2477.51 331.495C2472.02 321.486 2469.27 310.348 2469.27 298.08C2469.27 285.812 2472.02 274.674 2477.51 264.666C2483 254.658 2490.67 246.829 2500.53 241.179C2510.39 235.368 2521.53 232.462 2533.97 232.462C2546.41 232.462 2557.55 235.368 2567.41 241.179C2577.26 246.99 2584.94 254.9 2590.43 264.908C2595.92 274.916 2598.67 285.974 2598.67 298.08C2598.67 310.348 2595.92 321.486 2590.43 331.495C2584.94 341.503 2577.26 349.412 2567.41 355.224C2557.55 360.874 2546.41 363.698 2533.97 363.698ZM2533.97 339.243C2540.75 339.243 2547.05 337.629 2552.87 334.4C2558.68 331.01 2563.29 326.248 2566.68 320.114C2570.23 313.819 2572.01 306.474 2572.01 298.08C2572.01 289.686 2570.23 282.422 2566.68 276.288C2563.29 270.154 2558.68 265.473 2552.87 262.244C2547.05 258.855 2540.75 257.16 2533.97 257.16C2527.19 257.16 2520.89 258.855 2515.07 262.244C2509.26 265.473 2504.57 270.154 2501.02 276.288C2497.62 282.422 2495.92 289.686 2495.92 298.08C2495.92 306.474 2497.62 313.819 2501.02 320.114C2504.57 326.248 2509.26 331.01 2515.07 334.4C2520.89 337.629 2527.19 339.243 2533.97 339.243ZM2623.57 186.457H2650.22V359.824H2623.57V186.457ZM2683.06 186.457H2709.72V287.426H2710.44L2761.08 236.336H2794.53V237.789L2746.55 285.49L2795.97 358.372V359.824H2764.24L2727.89 303.892L2709.72 321.567V359.824H2683.06V186.457ZM2829.27 218.418C2824.27 218.418 2819.99 216.724 2816.44 213.334C2813.04 209.782 2811.34 205.505 2811.34 200.5C2811.34 195.496 2813.04 191.3 2816.44 187.91C2819.99 184.358 2824.27 182.583 2829.27 182.583C2834.28 182.583 2838.49 184.358 2841.88 187.91C2845.43 191.3 2847.21 195.496 2847.21 200.5C2847.21 205.505 2845.43 209.782 2841.88 213.334C2838.49 216.724 2834.28 218.418 2829.27 218.418ZM2815.95 236.336H2842.6V359.824H2815.95V236.336ZM2926.75 361.762C2921.26 361.762 2916.09 360.874 2911.24 359.098C2906.39 357.322 2902.43 354.982 2899.36 352.076C2892.42 345.135 2888.95 335.692 2888.95 323.746V259.823H2867.38V236.336H2888.95V201.469H2915.6V236.336H2945.64V259.823H2915.6V317.935C2915.6 324.554 2916.9 329.235 2919.48 331.979C2921.9 335.208 2926.1 336.822 2932.07 336.822C2934.83 336.822 2937.25 336.499 2939.35 335.853C2941.44 335.046 2943.71 333.836 2946.13 332.221V358.13C2940.8 360.551 2934.34 361.762 2926.75 361.762Z" fill="black"/>
</svg>
