<svg width="2946" height="485" viewBox="0 0 2946 485" fill="none" xmlns="http://www.w3.org/2000/svg">
<path d="M489.759 332.934H96.0061C87.6422 332.934 80.8618 339.71 80.8618 348.067V408.601C80.8618 416.959 87.6422 423.734 96.0061 423.734H489.759C498.122 423.734 504.903 416.959 504.903 408.601V348.067C504.903 339.71 498.122 332.934 489.759 332.934Z" fill="#0553B1"/>
<path d="M555.706 65.6969L197.764 2.62788C189.527 1.17654 181.672 6.67249 180.22 14.9034L132.884 283.165C131.431 291.396 136.931 299.245 145.168 300.696L503.11 363.765C511.347 365.217 519.202 359.721 520.654 351.49L567.99 83.2282C569.443 74.9973 563.943 67.1482 555.706 65.6969Z" fill="#08589C"/>
<path d="M14.9143 126.23L372.856 63.1611C381.093 61.7097 388.948 67.2057 390.4 75.4366L437.736 343.698C439.189 351.929 433.689 359.778 425.452 361.23L67.5099 424.299C59.273 425.75 51.4182 420.254 49.9658 412.023L2.62979 143.761C1.1774 135.53 6.67736 127.681 14.9143 126.23Z" fill="#44D1FD"/>
<path d="M50.5732 170.358C50.5732 159.851 58.7612 151.333 68.8604 151.333H516.902C527.004 151.333 535.192 159.851 535.192 170.358V465.242C535.192 475.749 527.004 484.267 516.902 484.267H68.8604C58.7612 484.267 50.5732 475.749 50.5732 465.242V170.358Z" fill="#027DFD"/>
<path d="M308.027 230.783H424.855C427.244 230.783 429.181 233.203 429.181 236.188V263.212C429.181 266.197 427.244 268.617 424.855 268.617H308.027V230.783Z" fill="white"/>
<path d="M308.027 298.883H484.708C487.495 298.883 489.759 301.303 489.759 304.288V331.312C489.759 334.297 487.495 336.717 484.708 336.717H308.027V298.883Z" fill="white"/>
<path d="M308.027 366.983H454.737C457.352 366.983 459.47 369.403 459.47 372.388V399.412C459.47 402.397 457.352 404.817 454.737 404.817H308.027V366.983Z" fill="white"/>
<path d="M192.484 235.886L247.231 235.831L155.38 321.015L131.443 343.103L104.207 317.799L192.484 235.886ZM191.975 311.945C192.685 311.075 193.992 311.504 194.984 311.392L247.184 311.405L199.61 355.505L172.233 330.258L191.975 311.945Z" fill="white"/>
<path d="M144.944 355.549L172.234 330.258L199.611 355.506L199.725 355.618L172.24 380.884L144.944 355.549Z" fill="white"/>
<path d="M172.238 380.884L199.721 355.618L247.202 399.719C229.318 399.756 211.439 399.707 193.561 399.743C192.543 399.956 191.912 399.091 191.262 398.556L172.238 380.884Z" fill="white"/>
<path d="M721.649 186.425H827.052V212.333H748.784V262.212H819.297V287.879H748.784V359.793H721.649V186.425ZM852.972 186.425H879.625V359.793H852.972V186.425ZM957.526 363.666C942.507 363.666 931.032 359.228 923.119 350.349C915.364 341.31 911.486 328.799 911.486 312.819V236.305H938.147V309.186C938.147 319.194 940.485 326.701 945.17 331.705C950.012 336.709 956.32 339.211 964.067 339.211C970.374 339.211 975.941 337.597 980.792 334.369C985.635 330.979 989.354 326.54 991.934 321.051C994.522 315.562 995.812 309.671 995.812 303.375V236.305H1022.46V359.793H997.268V343.812H995.812C992.417 349.623 987.174 354.385 980.06 358.098C972.954 361.811 965.44 363.666 957.526 363.666ZM1106.83 361.73C1101.34 361.73 1096.17 360.842 1091.32 359.066C1086.48 357.291 1082.52 354.95 1079.45 352.045C1072.51 345.103 1069.03 335.66 1069.03 323.715V259.791H1047.47V236.305H1069.03V201.437H1095.68V236.305H1147.78V201.437H1174.43V236.305H1204.48V259.791H1174.43V317.903C1174.43 324.522 1175.73 329.203 1178.31 331.947C1180.74 335.176 1184.93 336.79 1190.92 336.79C1193.66 336.79 1196.08 336.467 1198.18 335.821C1200.28 335.015 1202.54 333.804 1204.97 332.189V358.098C1199.47 360.519 1193.01 361.73 1185.58 361.73C1180.09 361.73 1174.92 360.842 1170.07 359.066C1165.23 357.291 1161.27 354.95 1158.2 352.045C1151.26 345.103 1147.78 335.66 1147.78 323.715V259.791H1095.68V317.903C1095.68 324.522 1096.98 329.203 1099.56 331.947C1101.99 335.176 1106.11 336.79 1111.92 336.79C1116.12 336.79 1120.4 335.418 1124.76 332.674V358.582C1122.18 359.712 1119.51 360.519 1116.77 361.003C1114.18 361.487 1110.87 361.73 1106.83 361.73ZM1283.11 363.666C1271 363.666 1260.1 360.842 1250.4 355.192C1240.88 349.543 1233.36 341.794 1227.87 331.947C1222.54 321.939 1219.87 310.72 1219.87 298.29C1219.87 286.506 1222.45 275.61 1227.63 265.603C1232.95 255.433 1240.31 247.362 1249.68 241.389C1259.05 235.416 1269.71 232.431 1281.66 232.431C1294.1 232.431 1304.84 235.175 1313.88 240.663C1323.1 246.151 1330.04 253.657 1334.73 263.181C1339.57 272.705 1341.99 283.44 1341.99 295.385C1341.99 297.645 1341.75 300.47 1341.27 303.86H1246.52C1247.5 315.32 1251.53 324.199 1258.64 330.495C1265.91 336.629 1274.31 339.695 1283.84 339.695C1291.43 339.695 1297.97 338.001 1303.47 334.611C1309.12 331.059 1313.64 326.297 1317.04 320.324L1339.57 330.978C1333.75 341.149 1326.17 349.139 1316.8 354.95C1307.43 360.761 1296.2 363.666 1283.11 363.666ZM1314.86 283.521C1314.53 279.162 1313.16 274.885 1310.74 270.687C1308.32 266.329 1304.6 262.697 1299.59 259.791C1294.75 256.886 1288.77 255.433 1281.66 255.433C1273.1 255.433 1265.83 258.016 1259.86 263.181C1254.04 268.185 1249.99 274.965 1247.74 283.521H1314.86ZM1367.78 236.305H1393.23V254.465H1394.44C1397.19 248.169 1401.95 243.004 1408.74 238.968C1415.52 234.771 1422.71 232.673 1430.3 232.673C1436.28 232.673 1441.28 233.48 1445.32 235.094V262.697C1438.22 260.115 1431.83 258.823 1426.18 258.823C1420.04 258.823 1414.54 260.437 1409.7 263.666C1405.02 266.894 1401.31 271.253 1398.56 276.74C1395.81 282.068 1394.44 287.96 1394.44 294.417V359.793H1367.78V236.305ZM1529.93 186.425H1562.16L1639.69 312.577H1641.15L1639.69 279.162V186.425H1666.59V359.793H1638.24L1556.83 227.103H1555.37L1556.83 260.518V359.793H1529.93V186.425ZM1759.83 363.666C1747.71 363.666 1736.81 360.842 1727.12 355.192C1717.59 349.543 1710.07 341.794 1704.58 331.947C1699.25 321.939 1696.59 310.72 1696.59 298.29C1696.59 286.506 1699.17 275.61 1704.34 265.603C1709.68 255.433 1717.02 247.362 1726.39 241.389C1735.76 235.416 1746.42 232.431 1758.38 232.431C1770.81 232.431 1781.55 235.175 1790.61 240.663C1799.81 246.151 1806.76 253.657 1811.44 263.181C1816.28 272.705 1818.71 283.44 1818.71 295.385C1818.71 297.645 1818.46 300.47 1817.98 303.86H1723.24C1724.21 315.32 1728.25 324.199 1735.35 330.495C1742.63 336.629 1751.02 339.695 1760.56 339.695C1768.15 339.695 1774.69 338.001 1780.18 334.611C1785.84 331.059 1790.36 326.297 1793.75 320.324L1816.28 330.978C1810.47 341.149 1802.88 349.139 1793.51 354.95C1784.14 360.761 1772.91 363.666 1759.83 363.666ZM1791.57 283.521C1791.25 279.162 1789.87 274.885 1787.45 270.687C1785.03 266.329 1781.31 262.697 1776.31 259.791C1771.46 256.886 1765.48 255.433 1758.38 255.433C1749.82 255.433 1742.54 258.016 1736.57 263.181C1730.75 268.185 1726.72 274.965 1724.45 283.521H1791.57ZM1828.32 236.305H1857.16L1882.11 324.683H1883.08L1910.94 236.305H1938.33L1965.95 324.683H1966.92L1991.88 236.305H2020.23L1980.73 359.793H1952.62L1924.28 271.172H1923.54L1895.44 359.793H1867.82L1828.32 236.305ZM2083.93 363.666C2069.72 363.666 2058.09 360.6 2049.04 354.466C2040 348.17 2033.61 340.18 2029.9 330.495L2053.64 320.082C2056.55 326.54 2060.59 331.463 2065.76 334.852C2071.09 338.242 2077.15 339.938 2083.93 339.938C2090.55 339.938 2096.13 338.808 2100.66 336.548C2105.17 334.127 2107.44 330.575 2107.44 325.894C2107.44 321.374 2105.5 317.822 2101.62 315.24C2097.74 312.657 2091.77 310.397 2083.69 308.461L2068.91 304.829C2059.06 302.407 2050.9 298.129 2044.44 291.995C2037.97 285.861 2034.75 278.113 2034.75 268.751C2034.75 261.487 2036.84 255.111 2041.04 249.622C2045.4 244.133 2051.22 239.937 2058.49 237.031C2065.76 233.964 2073.68 232.431 2082.24 232.431C2093.71 232.431 2103.8 234.771 2112.53 239.453C2121.25 243.972 2127.55 250.591 2131.43 259.307L2108.16 269.476C2103.48 259.953 2094.92 255.191 2082.48 255.191C2076.5 255.191 2071.5 256.402 2067.46 258.823C2063.42 261.245 2061.4 264.392 2061.4 268.266C2061.4 271.978 2062.94 275.046 2066.01 277.467C2069.07 279.727 2073.6 281.664 2079.57 283.279L2097.74 287.879C2109.86 290.946 2118.99 295.627 2125.13 301.923C2131.43 308.056 2134.57 315.644 2134.57 324.683C2134.57 332.431 2132.32 339.292 2127.79 345.265C2123.43 351.076 2117.37 355.596 2109.62 358.824C2101.86 362.053 2093.3 363.666 2083.93 363.666ZM2247.27 212.333H2198.8V186.425H2322.87V212.333H2274.41V359.793H2247.27V212.333ZM2384.8 363.666C2372.36 363.666 2361.22 360.842 2351.36 355.192C2341.51 349.38 2333.84 341.471 2328.35 331.463C2322.85 321.454 2320.11 310.317 2320.11 298.049C2320.11 285.781 2322.85 274.643 2328.35 264.634C2333.84 254.626 2341.51 246.797 2351.36 241.147C2361.22 235.336 2372.36 232.431 2384.8 232.431C2397.24 232.431 2408.39 235.336 2418.24 241.147C2428.1 246.959 2435.77 254.868 2441.26 264.877C2446.75 274.885 2449.5 285.942 2449.5 298.049C2449.5 310.317 2446.75 321.454 2441.26 331.463C2435.77 341.471 2428.1 349.38 2418.24 355.192C2408.39 360.842 2397.24 363.666 2384.8 363.666ZM2384.8 339.211C2391.59 339.211 2397.88 337.597 2403.7 334.369C2409.52 330.979 2414.12 326.216 2417.51 320.082C2421.07 313.787 2422.85 306.443 2422.85 298.049C2422.85 289.655 2421.07 282.391 2417.51 276.257C2414.12 270.123 2409.52 265.441 2403.7 262.212C2397.88 258.823 2391.59 257.128 2384.8 257.128C2378.02 257.128 2371.71 258.823 2365.91 262.212C2360.09 265.441 2355.41 270.123 2351.85 276.257C2348.46 282.391 2346.76 289.655 2346.76 298.049C2346.76 306.443 2348.46 313.787 2351.85 320.082C2355.41 326.216 2360.09 330.979 2365.91 334.369C2371.71 337.597 2378.02 339.211 2384.8 339.211ZM2533.5 363.666C2521.06 363.666 2509.92 360.842 2500.06 355.192C2490.21 349.38 2482.53 341.471 2477.04 331.463C2471.55 321.454 2468.8 310.317 2468.8 298.049C2468.8 285.781 2471.55 274.643 2477.04 264.634C2482.53 254.626 2490.21 246.797 2500.06 241.147C2509.92 235.336 2521.06 232.431 2533.5 232.431C2545.94 232.431 2557.08 235.336 2566.94 241.147C2576.8 246.959 2584.47 254.868 2589.96 264.877C2595.45 274.885 2598.2 285.942 2598.2 298.049C2598.2 310.317 2595.45 321.454 2589.96 331.463C2584.47 341.471 2576.8 349.38 2566.94 355.192C2557.08 360.842 2545.94 363.666 2533.5 363.666ZM2533.5 339.211C2540.28 339.211 2546.58 337.597 2552.4 334.369C2558.21 330.979 2562.82 326.216 2566.21 320.082C2569.76 313.787 2571.54 306.443 2571.54 298.049C2571.54 289.655 2569.76 282.391 2566.21 276.257C2562.82 270.123 2558.21 265.441 2552.4 262.212C2546.58 258.823 2540.28 257.128 2533.5 257.128C2526.72 257.128 2520.42 258.823 2514.6 262.212C2508.79 265.441 2504.1 270.123 2500.55 276.257C2497.15 282.391 2495.46 289.655 2495.46 298.049C2495.46 306.443 2497.15 313.787 2500.55 320.082C2504.1 326.216 2508.79 330.979 2514.6 334.369C2520.42 337.597 2526.72 339.211 2533.5 339.211ZM2623.1 186.425H2649.75V359.793H2623.1V186.425ZM2682.59 186.425H2709.25V287.395H2709.97L2760.62 236.305H2794.06V237.757L2746.08 285.458L2795.51 358.34V359.793H2763.77L2727.42 303.86L2709.25 321.535V359.793H2682.59V186.425ZM2828.81 218.386C2823.8 218.386 2819.52 216.692 2815.97 213.302C2812.57 209.751 2810.88 205.473 2810.88 200.468C2810.88 195.464 2812.57 191.268 2815.97 187.878C2819.52 184.327 2823.8 182.551 2828.81 182.551C2833.82 182.551 2838.02 184.327 2841.41 187.878C2844.97 191.268 2846.74 195.464 2846.74 200.468C2846.74 205.473 2844.97 209.751 2841.41 213.302C2838.02 216.692 2833.82 218.386 2828.81 218.386ZM2815.49 236.305H2842.14V359.793H2815.49V236.305ZM2926.28 361.73C2920.79 361.73 2915.62 360.842 2910.77 359.066C2905.93 357.291 2901.97 354.95 2898.9 352.045C2891.96 345.103 2888.48 335.66 2888.48 323.715V259.791H2866.91V236.305H2888.48V201.437H2915.13V236.305H2945.18V259.791H2915.13V317.903C2915.13 324.522 2916.43 329.203 2919.01 331.947C2921.43 335.176 2925.63 336.79 2931.61 336.79C2934.36 336.79 2936.78 336.467 2938.88 335.821C2940.97 335.015 2943.24 333.804 2945.66 332.189V358.098C2940.33 360.519 2933.87 361.73 2926.28 361.73Z" fill="white"/>
</svg>
