<svg width="153" height="16" viewBox="0 0 153 16" fill="none" xmlns="http://www.w3.org/2000/svg">
<path d="M7.375 8.79688H9.32812C9.26562 9.54167 9.05729 10.2057 8.70312 10.7891C8.34896 11.3672 7.85156 11.8229 7.21094 12.1562C6.57031 12.4896 5.79167 12.6562 4.875 12.6562C4.17188 12.6562 3.53906 12.5312 2.97656 12.2812C2.41406 12.026 1.93229 11.6667 1.53125 11.2031C1.13021 10.7344 0.822917 10.1693 0.609375 9.50781C0.401042 8.84635 0.296875 8.10677 0.296875 7.28906V6.34375C0.296875 5.52604 0.403646 4.78646 0.617188 4.125C0.835938 3.46354 1.14844 2.89844 1.55469 2.42969C1.96094 1.95573 2.44792 1.59375 3.01562 1.34375C3.58854 1.09375 4.23177 0.96875 4.94531 0.96875C5.85156 0.96875 6.61719 1.13542 7.24219 1.46875C7.86719 1.80208 8.35156 2.26302 8.69531 2.85156C9.04427 3.4401 9.25781 4.11458 9.33594 4.875H7.38281C7.33073 4.38542 7.21615 3.96615 7.03906 3.61719C6.86719 3.26823 6.61198 3.0026 6.27344 2.82031C5.9349 2.63281 5.49219 2.53906 4.94531 2.53906C4.4974 2.53906 4.10677 2.6224 3.77344 2.78906C3.4401 2.95573 3.16146 3.20052 2.9375 3.52344C2.71354 3.84635 2.54427 4.24479 2.42969 4.71875C2.32031 5.1875 2.26562 5.72396 2.26562 6.32812V7.28906C2.26562 7.86198 2.3151 8.38281 2.41406 8.85156C2.51823 9.3151 2.67448 9.71354 2.88281 10.0469C3.09635 10.3802 3.36719 10.638 3.69531 10.8203C4.02344 11.0026 4.41667 11.0938 4.875 11.0938C5.43229 11.0938 5.88281 11.0052 6.22656 10.8281C6.57552 10.651 6.83854 10.3932 7.01562 10.0547C7.19792 9.71094 7.31771 9.29167 7.375 8.79688ZM10.5625 8.36719V8.1875C10.5625 7.57812 10.651 7.01302 10.8281 6.49219C11.0052 5.96615 11.2604 5.51042 11.5938 5.125C11.9323 4.73438 12.3438 4.43229 12.8281 4.21875C13.3177 4 13.8698 3.89062 14.4844 3.89062C15.1042 3.89062 15.6562 4 16.1406 4.21875C16.6302 4.43229 17.0443 4.73438 17.3828 5.125C17.7214 5.51042 17.9792 5.96615 18.1562 6.49219C18.3333 7.01302 18.4219 7.57812 18.4219 8.1875V8.36719C18.4219 8.97656 18.3333 9.54167 18.1562 10.0625C17.9792 10.5833 17.7214 11.0391 17.3828 11.4297C17.0443 11.8151 16.6328 12.1172 16.1484 12.3359C15.6641 12.5495 15.1146 12.6562 14.5 12.6562C13.8802 12.6562 13.3255 12.5495 12.8359 12.3359C12.3516 12.1172 11.9401 11.8151 11.6016 11.4297C11.263 11.0391 11.0052 10.5833 10.8281 10.0625C10.651 9.54167 10.5625 8.97656 10.5625 8.36719ZM12.4453 8.1875V8.36719C12.4453 8.7474 12.4844 9.10677 12.5625 9.44531C12.6406 9.78385 12.763 10.0807 12.9297 10.3359C13.0964 10.5911 13.3099 10.7917 13.5703 10.9375C13.8307 11.0833 14.1406 11.1562 14.5 11.1562C14.849 11.1562 15.151 11.0833 15.4062 10.9375C15.6667 10.7917 15.8802 10.5911 16.0469 10.3359C16.2135 10.0807 16.3359 9.78385 16.4141 9.44531C16.4974 9.10677 16.5391 8.7474 16.5391 8.36719V8.1875C16.5391 7.8125 16.4974 7.45833 16.4141 7.125C16.3359 6.78646 16.2109 6.48698 16.0391 6.22656C15.8724 5.96615 15.6589 5.76302 15.3984 5.61719C15.1432 5.46615 14.8385 5.39062 14.4844 5.39062C14.1302 5.39062 13.8229 5.46615 13.5625 5.61719C13.3073 5.76302 13.0964 5.96615 12.9297 6.22656C12.763 6.48698 12.6406 6.78646 12.5625 7.125C12.4844 7.45833 12.4453 7.8125 12.4453 8.1875ZM21.8672 5.85156V12.5H19.9844V4.04688H21.7578L21.8672 5.85156ZM21.5312 7.96094L20.9219 7.95312C20.9271 7.35417 21.0104 6.80469 21.1719 6.30469C21.3385 5.80469 21.5677 5.375 21.8594 5.01562C22.1562 4.65625 22.5104 4.38021 22.9219 4.1875C23.3333 3.98958 23.7917 3.89062 24.2969 3.89062C24.7031 3.89062 25.0703 3.94792 25.3984 4.0625C25.7318 4.17188 26.0156 4.35156 26.25 4.60156C26.4896 4.85156 26.6719 5.17708 26.7969 5.57812C26.9219 5.97396 26.9844 6.46094 26.9844 7.03906V12.5H25.0938V7.03125C25.0938 6.625 25.0339 6.30469 24.9141 6.07031C24.7995 5.83073 24.6302 5.66146 24.4062 5.5625C24.1875 5.45833 23.9141 5.40625 23.5859 5.40625C23.263 5.40625 22.974 5.47396 22.7188 5.60938C22.4635 5.74479 22.2474 5.92969 22.0703 6.16406C21.8984 6.39844 21.7656 6.66927 21.6719 6.97656C21.5781 7.28385 21.5312 7.61198 21.5312 7.96094ZM32.7812 4.04688V5.42188H28.0156V4.04688H32.7812ZM29.3906 1.97656H31.2734V10.1641C31.2734 10.4245 31.3099 10.625 31.3828 10.7656C31.4609 10.901 31.5677 10.9922 31.7031 11.0391C31.8385 11.0859 31.9974 11.1094 32.1797 11.1094C32.3099 11.1094 32.4349 11.1016 32.5547 11.0859C32.6745 11.0703 32.7708 11.0547 32.8438 11.0391L32.8516 12.4766C32.6953 12.5234 32.513 12.5651 32.3047 12.6016C32.1016 12.638 31.8672 12.6562 31.6016 12.6562C31.1693 12.6562 30.7865 12.5807 30.4531 12.4297C30.1198 12.2734 29.8594 12.0208 29.6719 11.6719C29.4844 11.3229 29.3906 10.8594 29.3906 10.2812V1.97656ZM36.25 4.04688V12.5H34.3594V4.04688H36.25ZM34.2344 1.82812C34.2344 1.54167 34.3281 1.30469 34.5156 1.11719C34.7083 0.924479 34.974 0.828125 35.3125 0.828125C35.6458 0.828125 35.9089 0.924479 36.1016 1.11719C36.2943 1.30469 36.3906 1.54167 36.3906 1.82812C36.3906 2.10938 36.2943 2.34375 36.1016 2.53125C35.9089 2.71875 35.6458 2.8125 35.3125 2.8125C34.974 2.8125 34.7083 2.71875 34.5156 2.53125C34.3281 2.34375 34.2344 2.10938 34.2344 1.82812ZM40.1797 5.85156V12.5H38.2969V4.04688H40.0703L40.1797 5.85156ZM39.8438 7.96094L39.2344 7.95312C39.2396 7.35417 39.3229 6.80469 39.4844 6.30469C39.651 5.80469 39.8802 5.375 40.1719 5.01562C40.4688 4.65625 40.8229 4.38021 41.2344 4.1875C41.6458 3.98958 42.1042 3.89062 42.6094 3.89062C43.0156 3.89062 43.3828 3.94792 43.7109 4.0625C44.0443 4.17188 44.3281 4.35156 44.5625 4.60156C44.8021 4.85156 44.9844 5.17708 45.1094 5.57812C45.2344 5.97396 45.2969 6.46094 45.2969 7.03906V12.5H43.4062V7.03125C43.4062 6.625 43.3464 6.30469 43.2266 6.07031C43.112 5.83073 42.9427 5.66146 42.7188 5.5625C42.5 5.45833 42.2266 5.40625 41.8984 5.40625C41.5755 5.40625 41.2865 5.47396 41.0312 5.60938C40.776 5.74479 40.5599 5.92969 40.3828 6.16406C40.2109 6.39844 40.0781 6.66927 39.9844 6.97656C39.8906 7.28385 39.8438 7.61198 39.8438 7.96094ZM52.3047 10.5078V4.04688H54.1953V12.5H52.4141L52.3047 10.5078ZM52.5703 8.75L53.2031 8.73438C53.2031 9.30208 53.1406 9.82552 53.0156 10.3047C52.8906 10.7786 52.6979 11.1927 52.4375 11.5469C52.1771 11.8958 51.8438 12.1693 51.4375 12.3672C51.0312 12.5599 50.5443 12.6562 49.9766 12.6562C49.5651 12.6562 49.1875 12.5964 48.8438 12.4766C48.5 12.3568 48.2031 12.1719 47.9531 11.9219C47.7083 11.6719 47.5182 11.3464 47.3828 10.9453C47.2474 10.5443 47.1797 10.0651 47.1797 9.50781V4.04688H49.0625V9.52344C49.0625 9.83073 49.099 10.0885 49.1719 10.2969C49.2448 10.5 49.3438 10.6641 49.4688 10.7891C49.5938 10.9141 49.7396 11.0026 49.9062 11.0547C50.0729 11.1068 50.25 11.1328 50.4375 11.1328C50.974 11.1328 51.3958 11.0286 51.7031 10.8203C52.0156 10.6068 52.237 10.3203 52.3672 9.96094C52.5026 9.60156 52.5703 9.19792 52.5703 8.75ZM59.8516 12.6562C59.2266 12.6562 58.6615 12.5547 58.1562 12.3516C57.6562 12.1432 57.2292 11.8542 56.875 11.4844C56.526 11.1146 56.2578 10.6797 56.0703 10.1797C55.8828 9.67969 55.7891 9.14062 55.7891 8.5625V8.25C55.7891 7.58854 55.8854 6.98958 56.0781 6.45312C56.2708 5.91667 56.5391 5.45833 56.8828 5.07812C57.2266 4.69271 57.6328 4.39844 58.1016 4.19531C58.5703 3.99219 59.0781 3.89062 59.625 3.89062C60.2292 3.89062 60.7578 3.99219 61.2109 4.19531C61.6641 4.39844 62.0391 4.6849 62.3359 5.05469C62.638 5.41927 62.862 5.85417 63.0078 6.35938C63.1589 6.86458 63.2344 7.42188 63.2344 8.03125V8.83594H56.7031V7.48438H61.375V7.33594C61.3646 6.9974 61.2969 6.67969 61.1719 6.38281C61.0521 6.08594 60.8672 5.84635 60.6172 5.66406C60.3672 5.48177 60.0339 5.39062 59.6172 5.39062C59.3047 5.39062 59.026 5.45833 58.7812 5.59375C58.5417 5.72396 58.3411 5.91406 58.1797 6.16406C58.0182 6.41406 57.8932 6.71615 57.8047 7.07031C57.7214 7.41927 57.6797 7.8125 57.6797 8.25V8.5625C57.6797 8.93229 57.7292 9.27604 57.8281 9.59375C57.9323 9.90625 58.0833 10.1797 58.2812 10.4141C58.4792 10.6484 58.7188 10.8333 59 10.9688C59.2812 11.099 59.6016 11.1641 59.9609 11.1641C60.4141 11.1641 60.8177 11.0729 61.1719 10.8906C61.526 10.7083 61.8333 10.4505 62.0938 10.1172L63.0859 11.0781C62.9036 11.3438 62.6667 11.599 62.375 11.8438C62.0833 12.0833 61.7266 12.2786 61.3047 12.4297C60.888 12.5807 60.4036 12.6562 59.8516 12.6562ZM70.9844 10.625L72.9375 4.04688H74.1406L73.8125 6.01562L71.8438 12.5H70.7656L70.9844 10.625ZM69.8359 4.04688L71.3594 10.6562L71.4844 12.5H70.2812L67.9922 4.04688H69.8359ZM75.9688 10.5781L77.4453 4.04688H79.2812L77 12.5H75.7969L75.9688 10.5781ZM74.3438 4.04688L76.2734 10.5469L76.5156 12.5H75.4375L73.4453 6.00781L73.1172 4.04688H74.3438ZM82.5781 4.04688V12.5H80.6875V4.04688H82.5781ZM80.5625 1.82812C80.5625 1.54167 80.6562 1.30469 80.8438 1.11719C81.0365 0.924479 81.3021 0.828125 81.6406 0.828125C81.974 0.828125 82.237 0.924479 82.4297 1.11719C82.6224 1.30469 82.7188 1.54167 82.7188 1.82812C82.7188 2.10938 82.6224 2.34375 82.4297 2.53125C82.237 2.71875 81.974 2.8125 81.6406 2.8125C81.3021 2.8125 81.0365 2.71875 80.8438 2.53125C80.6562 2.34375 80.5625 2.10938 80.5625 1.82812ZM88.5156 4.04688V5.42188H83.75V4.04688H88.5156ZM85.125 1.97656H87.0078V10.1641C87.0078 10.4245 87.0443 10.625 87.1172 10.7656C87.1953 10.901 87.3021 10.9922 87.4375 11.0391C87.5729 11.0859 87.7318 11.1094 87.9141 11.1094C88.0443 11.1094 88.1693 11.1016 88.2891 11.0859C88.4089 11.0703 88.5052 11.0547 88.5781 11.0391L88.5859 12.4766C88.4297 12.5234 88.2474 12.5651 88.0391 12.6016C87.8359 12.638 87.6016 12.6562 87.3359 12.6562C86.9036 12.6562 86.5208 12.5807 86.1875 12.4297C85.8542 12.2734 85.5938 12.0208 85.4062 11.6719C85.2188 11.3229 85.125 10.8594 85.125 10.2812V1.97656ZM91.8281 0.5V12.5H89.9531V0.5H91.8281ZM91.5 7.96094L90.8906 7.95312C90.8958 7.36979 90.9766 6.83073 91.1328 6.33594C91.2943 5.84115 91.5182 5.41146 91.8047 5.04688C92.0964 4.67708 92.4453 4.39323 92.8516 4.19531C93.2578 3.99219 93.7083 3.89062 94.2031 3.89062C94.6198 3.89062 94.9948 3.94792 95.3281 4.0625C95.6667 4.17708 95.9583 4.36198 96.2031 4.61719C96.4479 4.86719 96.6328 5.19531 96.7578 5.60156C96.888 6.0026 96.9531 6.49219 96.9531 7.07031V12.5H95.0625V7.05469C95.0625 6.64844 95.0026 6.32552 94.8828 6.08594C94.7682 5.84635 94.599 5.67448 94.375 5.57031C94.151 5.46094 93.8776 5.40625 93.5547 5.40625C93.2161 5.40625 92.9167 5.47396 92.6562 5.60938C92.401 5.74479 92.1875 5.92969 92.0156 6.16406C91.8438 6.39844 91.7135 6.66927 91.625 6.97656C91.5417 7.28385 91.5 7.61198 91.5 7.96094ZM111.766 6.6875V11.0312C111.604 11.2448 111.352 11.4792 111.008 11.7344C110.669 11.9844 110.219 12.2005 109.656 12.3828C109.094 12.5651 108.393 12.6562 107.555 12.6562C106.841 12.6562 106.188 12.5365 105.594 12.2969C105 12.0521 104.487 11.6953 104.055 11.2266C103.628 10.7578 103.297 10.1875 103.062 9.51562C102.828 8.83854 102.711 8.06771 102.711 7.20312V6.41406C102.711 5.55469 102.818 4.78906 103.031 4.11719C103.25 3.4401 103.562 2.86719 103.969 2.39844C104.375 1.92969 104.865 1.57552 105.438 1.33594C106.016 1.09115 106.669 0.96875 107.398 0.96875C108.331 0.96875 109.102 1.125 109.711 1.4375C110.326 1.74479 110.799 2.17188 111.133 2.71875C111.466 3.26562 111.677 3.89062 111.766 4.59375H109.844C109.781 4.19792 109.659 3.84375 109.477 3.53125C109.299 3.21875 109.044 2.97396 108.711 2.79688C108.383 2.61458 107.956 2.52344 107.43 2.52344C106.977 2.52344 106.578 2.60938 106.234 2.78125C105.891 2.95312 105.604 3.20573 105.375 3.53906C105.151 3.8724 104.982 4.27865 104.867 4.75781C104.753 5.23698 104.695 5.78385 104.695 6.39844V7.20312C104.695 7.82812 104.76 8.38281 104.891 8.86719C105.026 9.35156 105.219 9.76042 105.469 10.0938C105.724 10.4271 106.034 10.6797 106.398 10.8516C106.763 11.0182 107.174 11.1016 107.633 11.1016C108.081 11.1016 108.448 11.0651 108.734 10.9922C109.021 10.9141 109.247 10.8229 109.414 10.7188C109.586 10.6094 109.719 10.5052 109.812 10.4062V8.14844H107.445V6.6875H111.766ZM113.391 8.36719V8.1875C113.391 7.57812 113.479 7.01302 113.656 6.49219C113.833 5.96615 114.089 5.51042 114.422 5.125C114.76 4.73438 115.172 4.43229 115.656 4.21875C116.146 4 116.698 3.89062 117.312 3.89062C117.932 3.89062 118.484 4 118.969 4.21875C119.458 4.43229 119.872 4.73438 120.211 5.125C120.549 5.51042 120.807 5.96615 120.984 6.49219C121.161 7.01302 121.25 7.57812 121.25 8.1875V8.36719C121.25 8.97656 121.161 9.54167 120.984 10.0625C120.807 10.5833 120.549 11.0391 120.211 11.4297C119.872 11.8151 119.461 12.1172 118.977 12.3359C118.492 12.5495 117.943 12.6562 117.328 12.6562C116.708 12.6562 116.154 12.5495 115.664 12.3359C115.18 12.1172 114.768 11.8151 114.43 11.4297C114.091 11.0391 113.833 10.5833 113.656 10.0625C113.479 9.54167 113.391 8.97656 113.391 8.36719ZM115.273 8.1875V8.36719C115.273 8.7474 115.312 9.10677 115.391 9.44531C115.469 9.78385 115.591 10.0807 115.758 10.3359C115.924 10.5911 116.138 10.7917 116.398 10.9375C116.659 11.0833 116.969 11.1562 117.328 11.1562C117.677 11.1562 117.979 11.0833 118.234 10.9375C118.495 10.7917 118.708 10.5911 118.875 10.3359C119.042 10.0807 119.164 9.78385 119.242 9.44531C119.326 9.10677 119.367 8.7474 119.367 8.36719V8.1875C119.367 7.8125 119.326 7.45833 119.242 7.125C119.164 6.78646 119.039 6.48698 118.867 6.22656C118.701 5.96615 118.487 5.76302 118.227 5.61719C117.971 5.46615 117.667 5.39062 117.312 5.39062C116.958 5.39062 116.651 5.46615 116.391 5.61719C116.135 5.76302 115.924 5.96615 115.758 6.22656C115.591 6.48698 115.469 6.78646 115.391 7.125C115.312 7.45833 115.273 7.8125 115.273 8.1875ZM122.469 8.36719V8.1875C122.469 7.57812 122.557 7.01302 122.734 6.49219C122.911 5.96615 123.167 5.51042 123.5 5.125C123.839 4.73438 124.25 4.43229 124.734 4.21875C125.224 4 125.776 3.89062 126.391 3.89062C127.01 3.89062 127.562 4 128.047 4.21875C128.536 4.43229 128.951 4.73438 129.289 5.125C129.628 5.51042 129.885 5.96615 130.062 6.49219C130.24 7.01302 130.328 7.57812 130.328 8.1875V8.36719C130.328 8.97656 130.24 9.54167 130.062 10.0625C129.885 10.5833 129.628 11.0391 129.289 11.4297C128.951 11.8151 128.539 12.1172 128.055 12.3359C127.57 12.5495 127.021 12.6562 126.406 12.6562C125.786 12.6562 125.232 12.5495 124.742 12.3359C124.258 12.1172 123.846 11.8151 123.508 11.4297C123.169 11.0391 122.911 10.5833 122.734 10.0625C122.557 9.54167 122.469 8.97656 122.469 8.36719ZM124.352 8.1875V8.36719C124.352 8.7474 124.391 9.10677 124.469 9.44531C124.547 9.78385 124.669 10.0807 124.836 10.3359C125.003 10.5911 125.216 10.7917 125.477 10.9375C125.737 11.0833 126.047 11.1562 126.406 11.1562C126.755 11.1562 127.057 11.0833 127.312 10.9375C127.573 10.7917 127.786 10.5911 127.953 10.3359C128.12 10.0807 128.242 9.78385 128.32 9.44531C128.404 9.10677 128.445 8.7474 128.445 8.36719V8.1875C128.445 7.8125 128.404 7.45833 128.32 7.125C128.242 6.78646 128.117 6.48698 127.945 6.22656C127.779 5.96615 127.565 5.76302 127.305 5.61719C127.049 5.46615 126.745 5.39062 126.391 5.39062C126.036 5.39062 125.729 5.46615 125.469 5.61719C125.214 5.76302 125.003 5.96615 124.836 6.22656C124.669 6.48698 124.547 6.78646 124.469 7.125C124.391 7.45833 124.352 7.8125 124.352 8.1875ZM137.32 4.04688H139.031V12.2656C139.031 13.026 138.87 13.6719 138.547 14.2031C138.224 14.7344 137.773 15.138 137.195 15.4141C136.617 15.6953 135.948 15.8359 135.188 15.8359C134.865 15.8359 134.505 15.7891 134.109 15.6953C133.719 15.6016 133.339 15.4505 132.969 15.2422C132.604 15.0391 132.299 14.7708 132.055 14.4375L132.938 13.3281C133.24 13.6875 133.573 13.9505 133.938 14.1172C134.302 14.2839 134.685 14.3672 135.086 14.3672C135.518 14.3672 135.885 14.2865 136.188 14.125C136.495 13.9688 136.732 13.737 136.898 13.4297C137.065 13.1224 137.148 12.7474 137.148 12.3047V5.96094L137.32 4.04688ZM131.578 8.36719V8.20312C131.578 7.5625 131.656 6.97917 131.812 6.45312C131.969 5.92188 132.193 5.46615 132.484 5.08594C132.776 4.70052 133.13 4.40625 133.547 4.20312C133.964 3.99479 134.435 3.89062 134.961 3.89062C135.508 3.89062 135.974 3.98958 136.359 4.1875C136.75 4.38542 137.076 4.66927 137.336 5.03906C137.596 5.40365 137.799 5.84115 137.945 6.35156C138.096 6.85677 138.208 7.41927 138.281 8.03906V8.5625C138.214 9.16667 138.099 9.71875 137.938 10.2188C137.776 10.7188 137.562 11.151 137.297 11.5156C137.031 11.8802 136.703 12.1615 136.312 12.3594C135.927 12.5573 135.471 12.6562 134.945 12.6562C134.43 12.6562 133.964 12.5495 133.547 12.3359C133.135 12.1224 132.781 11.8229 132.484 11.4375C132.193 11.0521 131.969 10.599 131.812 10.0781C131.656 9.55208 131.578 8.98177 131.578 8.36719ZM133.461 8.20312V8.36719C133.461 8.7526 133.497 9.11198 133.57 9.44531C133.648 9.77865 133.766 10.0729 133.922 10.3281C134.083 10.5781 134.286 10.776 134.531 10.9219C134.781 11.0625 135.076 11.1328 135.414 11.1328C135.857 11.1328 136.219 11.0391 136.5 10.8516C136.786 10.6641 137.005 10.4115 137.156 10.0938C137.312 9.77083 137.422 9.41146 137.484 9.01562V7.60156C137.453 7.29427 137.388 7.00781 137.289 6.74219C137.195 6.47656 137.068 6.24479 136.906 6.04688C136.745 5.84375 136.542 5.6875 136.297 5.57812C136.052 5.46354 135.763 5.40625 135.43 5.40625C135.091 5.40625 134.797 5.47917 134.547 5.625C134.297 5.77083 134.091 5.97135 133.93 6.22656C133.773 6.48177 133.656 6.77865 133.578 7.11719C133.5 7.45573 133.461 7.81771 133.461 8.20312ZM143 0.5V12.5H141.109V0.5H143ZM148.789 12.6562C148.164 12.6562 147.599 12.5547 147.094 12.3516C146.594 12.1432 146.167 11.8542 145.812 11.4844C145.464 11.1146 145.195 10.6797 145.008 10.1797C144.82 9.67969 144.727 9.14062 144.727 8.5625V8.25C144.727 7.58854 144.823 6.98958 145.016 6.45312C145.208 5.91667 145.477 5.45833 145.82 5.07812C146.164 4.69271 146.57 4.39844 147.039 4.19531C147.508 3.99219 148.016 3.89062 148.562 3.89062C149.167 3.89062 149.695 3.99219 150.148 4.19531C150.602 4.39844 150.977 4.6849 151.273 5.05469C151.576 5.41927 151.799 5.85417 151.945 6.35938C152.096 6.86458 152.172 7.42188 152.172 8.03125V8.83594H145.641V7.48438H150.312V7.33594C150.302 6.9974 150.234 6.67969 150.109 6.38281C149.99 6.08594 149.805 5.84635 149.555 5.66406C149.305 5.48177 148.971 5.39062 148.555 5.39062C148.242 5.39062 147.964 5.45833 147.719 5.59375C147.479 5.72396 147.279 5.91406 147.117 6.16406C146.956 6.41406 146.831 6.71615 146.742 7.07031C146.659 7.41927 146.617 7.8125 146.617 8.25V8.5625C146.617 8.93229 146.667 9.27604 146.766 9.59375C146.87 9.90625 147.021 10.1797 147.219 10.4141C147.417 10.6484 147.656 10.8333 147.938 10.9688C148.219 11.099 148.539 11.1641 148.898 11.1641C149.352 11.1641 149.755 11.0729 150.109 10.8906C150.464 10.7083 150.771 10.4505 151.031 10.1172L152.023 11.0781C151.841 11.3438 151.604 11.599 151.312 11.8438C151.021 12.0833 150.664 12.2786 150.242 12.4297C149.826 12.5807 149.341 12.6562 148.789 12.6562Z" fill="black" fill-opacity="0.54"/>
</svg>
