<svg width="160" height="13" viewBox="0 0 160 13" fill="none" xmlns="http://www.w3.org/2000/svg">
<path d="M5.92 12.772C4.768 12.772 3.792 12.5213 2.992 12.02C2.192 11.508 1.59467 10.804 1.2 9.908C0.805333 9.012 0.608 7.97733 0.608 6.804C0.608 5.62 0.816 4.58533 1.232 3.7C1.65867 2.804 2.272 2.11067 3.072 1.62C3.872 1.11867 4.832 0.867999 5.952 0.867999C7.33867 0.867999 8.43733 1.23067 9.248 1.956C10.0587 2.68133 10.544 3.66267 10.704 4.9L8.592 5.204C8.496 4.38267 8.21333 3.73733 7.744 3.268C7.27467 2.79867 6.656 2.564 5.888 2.564C4.896 2.564 4.12267 2.948 3.568 3.716C3.01333 4.47333 2.736 5.49733 2.736 6.788C2.736 8.068 3.01333 9.09733 3.568 9.876C4.13333 10.6547 4.92267 11.044 5.936 11.044C6.66133 11.044 7.25867 10.82 7.728 10.372C8.208 9.91333 8.52267 9.27867 8.672 8.468L10.72 8.884C10.464 10.0787 9.93067 11.028 9.12 11.732C8.32 12.4253 7.25333 12.772 5.92 12.772ZM15.8561 12.692C15.0881 12.692 14.4055 12.5267 13.8081 12.196C13.2215 11.8653 12.7628 11.3853 12.4321 10.756C12.1015 10.116 11.9361 9.35867 11.9361 8.484C11.9361 7.60933 12.1015 6.85733 12.4321 6.228C12.7628 5.59867 13.2215 5.124 13.8081 4.804C14.4055 4.47333 15.0881 4.308 15.8561 4.308C16.6241 4.308 17.3015 4.47333 17.8881 4.804C18.4855 5.124 18.9495 5.59867 19.2801 6.228C19.6108 6.85733 19.7761 7.60933 19.7761 8.484C19.7761 9.35867 19.6108 10.116 19.2801 10.756C18.9495 11.3853 18.4855 11.8653 17.8881 12.196C17.3015 12.5267 16.6241 12.692 15.8561 12.692ZM15.8561 11.236C16.4748 11.236 16.9548 11.0067 17.2961 10.548C17.6375 10.0787 17.8081 9.39067 17.8081 8.484C17.8081 7.588 17.6375 6.91067 17.2961 6.452C16.9655 5.99333 16.4855 5.764 15.8561 5.764C15.2268 5.764 14.7415 5.99333 14.4001 6.452C14.0588 6.91067 13.8881 7.588 13.8881 8.484C13.8881 9.38 14.0588 10.0627 14.4001 10.532C14.7415 11.0013 15.2268 11.236 15.8561 11.236ZM21.6706 4.5H23.4946V6.052C24.0386 4.87867 24.924 4.292 26.1506 4.292C27.0253 4.292 27.6866 4.56933 28.1346 5.124C28.5826 5.668 28.8066 6.47333 28.8066 7.54V12.5H26.8706V7.732C26.8706 6.47333 26.3746 5.844 25.3826 5.844C24.8173 5.844 24.3746 6.05733 24.0546 6.484C23.7453 6.91067 23.5906 7.50267 23.5906 8.26V12.5H21.6706V4.5ZM29.8948 4.5H31.3348V2.484L33.2548 1.716V4.5H35.2068V5.892H33.2548V9.716C33.2548 10.1533 33.3508 10.4733 33.5428 10.676C33.7348 10.8787 34.0281 10.98 34.4227 10.98C34.6894 10.98 34.9508 10.948 35.2068 10.884V12.5C34.7374 12.596 34.3001 12.644 33.8948 12.644C32.9774 12.644 32.3214 12.42 31.9268 11.972C31.5321 11.524 31.3348 10.8733 31.3348 10.02V5.892H29.8948V4.5ZM36.9675 12.5V4.5H38.8875V12.5H36.9675ZM36.8715 3.172V1.172H38.9515V3.172H36.8715ZM41.4363 4.5H43.2603V6.052C43.8043 4.87867 44.6896 4.292 45.9163 4.292C46.7909 4.292 47.4523 4.56933 47.9003 5.124C48.3483 5.668 48.5723 6.47333 48.5723 7.54V12.5H46.6363V7.732C46.6363 6.47333 46.1403 5.844 45.1483 5.844C44.5829 5.844 44.1403 6.05733 43.8203 6.484C43.5109 6.91067 43.3563 7.50267 43.3563 8.26V12.5H41.4363V4.5ZM53.4326 12.692C51.63 12.692 50.7286 11.6733 50.7286 9.636V4.5H52.6486V9.348C52.6486 9.93467 52.766 10.3827 53.0006 10.692C53.246 11.0013 53.598 11.156 54.0566 11.156C54.59 11.156 55.0166 10.9533 55.3366 10.548C55.6566 10.1427 55.8166 9.604 55.8166 8.932V4.5H57.7526V12.5H55.9286V11.012C55.7366 11.5133 55.4113 11.9187 54.9526 12.228C54.5046 12.5373 53.998 12.692 53.4326 12.692ZM67.0956 8.98H61.4796C61.4903 9.652 61.6876 10.1907 62.0716 10.596C62.4663 10.9907 62.9783 11.188 63.6076 11.188C64.0663 11.188 64.461 11.076 64.7916 10.852C65.1223 10.628 65.3783 10.2973 65.5596 9.86L67.0316 10.532C66.733 11.2253 66.2796 11.7587 65.6716 12.132C65.0743 12.5053 64.365 12.692 63.5436 12.692C62.317 12.692 61.357 12.3347 60.6636 11.62C59.9703 10.8947 59.6236 9.88133 59.6236 8.58C59.6236 7.25733 59.9596 6.21733 60.6316 5.46C61.3143 4.692 62.253 4.308 63.4476 4.308C64.6103 4.308 65.5063 4.63867 66.1356 5.3C66.7756 5.95067 67.0956 6.884 67.0956 8.1V8.98ZM65.2076 7.588C65.2076 6.93733 65.053 6.44133 64.7436 6.1C64.4343 5.75867 63.9916 5.588 63.4156 5.588C62.8076 5.588 62.3383 5.77467 62.0076 6.148C61.677 6.52133 61.501 7.044 61.4796 7.716H65.2076V7.588ZM72.1798 4.5H74.0678L75.2998 9.828C75.3851 10.2547 75.4331 10.5427 75.4438 10.692H75.4758C75.5184 10.404 75.5771 10.116 75.6518 9.828L76.9638 4.5H78.7718L80.0998 9.828C80.1104 9.91333 80.1371 10.0467 80.1798 10.228C80.2224 10.3987 80.2491 10.5533 80.2598 10.692H80.2917L80.4358 9.828L81.6838 4.5H83.5718L81.3638 12.5H79.4118L78.0358 7.22C77.9611 6.92133 77.9131 6.66 77.8918 6.436H77.8598L77.7158 7.22L76.3238 12.5H74.3718L72.1798 4.5ZM85.1706 12.5V4.5H87.0906V12.5H85.1706ZM85.0746 3.172V1.172H87.1546V3.172H85.0746ZM88.5354 4.5H89.9754V2.484L91.8954 1.716V4.5H93.8474V5.892H91.8954V9.716C91.8954 10.1533 91.9914 10.4733 92.1834 10.676C92.3754 10.8787 92.6687 10.98 93.0634 10.98C93.33 10.98 93.5914 10.948 93.8474 10.884V12.5C93.378 12.596 92.9407 12.644 92.5354 12.644C91.618 12.644 90.962 12.42 90.5674 11.972C90.1727 11.524 89.9754 10.8733 89.9754 10.02V5.892H88.5354V4.5ZM95.6881 0.9H97.6081V5.972C98.0881 4.84133 98.9468 4.276 100.184 4.276C101.048 4.276 101.704 4.55333 102.152 5.108C102.6 5.652 102.824 6.45733 102.824 7.524V12.5H100.888V7.684C100.888 7.076 100.765 6.61733 100.52 6.308C100.275 5.988 99.9068 5.828 99.4161 5.828C98.8401 5.828 98.3921 6.04133 98.0721 6.468C97.7628 6.884 97.6081 7.48133 97.6081 8.26V12.5H95.6881V0.9ZM117.041 1.14V2.82H113.601V12.5H111.537V2.82H108.097V1.14H117.041ZM116.586 4.5H118.474L119.706 9.828C119.791 10.2547 119.839 10.5427 119.85 10.692H119.882C119.925 10.404 119.983 10.116 120.058 9.828L121.37 4.5H123.178L124.506 9.828C124.517 9.91333 124.543 10.0467 124.586 10.228C124.629 10.3987 124.655 10.5533 124.666 10.692H124.698L124.842 9.828L126.09 4.5H127.978L125.77 12.5H123.818L122.442 7.22C122.367 6.92133 122.319 6.66 122.298 6.436H122.266L122.122 7.22L120.73 12.5H118.778L116.586 4.5ZM129.577 12.5V4.5H131.497V12.5H129.577ZM129.481 3.172V1.172H131.561V3.172H129.481ZM132.942 4.5H134.382V2.484L136.302 1.716V4.5H138.254V5.892H136.302V9.716C136.302 10.1533 136.398 10.4733 136.59 10.676C136.782 10.8787 137.075 10.98 137.47 10.98C137.736 10.98 137.998 10.948 138.254 10.884V12.5C137.784 12.596 137.347 12.644 136.942 12.644C136.024 12.644 135.368 12.42 134.974 11.972C134.579 11.524 134.382 10.8733 134.382 10.02V5.892H132.942V4.5ZM139.317 4.5H140.757V2.484L142.677 1.716V4.5H144.629V5.892H142.677V9.716C142.677 10.1533 142.773 10.4733 142.965 10.676C143.157 10.8787 143.45 10.98 143.845 10.98C144.111 10.98 144.373 10.948 144.629 10.884V12.5C144.159 12.596 143.722 12.644 143.317 12.644C142.399 12.644 141.743 12.42 141.349 11.972C140.954 11.524 140.757 10.8733 140.757 10.02V5.892H139.317V4.5ZM152.939 8.98H147.323C147.334 9.652 147.531 10.1907 147.915 10.596C148.31 10.9907 148.822 11.188 149.451 11.188C149.91 11.188 150.305 11.076 150.635 10.852C150.966 10.628 151.222 10.2973 151.403 9.86L152.875 10.532C152.577 11.2253 152.123 11.7587 151.515 12.132C150.918 12.5053 150.209 12.692 149.387 12.692C148.161 12.692 147.201 12.3347 146.507 11.62C145.814 10.8947 145.467 9.88133 145.467 8.58C145.467 7.25733 145.803 6.21733 146.475 5.46C147.158 4.692 148.097 4.308 149.291 4.308C150.454 4.308 151.35 4.63867 151.979 5.3C152.619 5.95067 152.939 6.884 152.939 8.1V8.98ZM151.051 7.588C151.051 6.93733 150.897 6.44133 150.587 6.1C150.278 5.75867 149.835 5.588 149.259 5.588C148.651 5.588 148.182 5.77467 147.851 6.148C147.521 6.52133 147.345 7.044 147.323 7.716H151.051V7.588ZM156.697 6.436C156.91 5.77467 157.23 5.25733 157.657 4.884C158.084 4.5 158.612 4.308 159.241 4.308C159.337 4.308 159.412 4.31333 159.465 4.324V6.164H159.209C158.494 6.164 157.94 6.35067 157.545 6.724C157.257 7.012 157.065 7.35333 156.969 7.748C156.873 8.14267 156.825 8.612 156.825 9.156V12.5H154.905V4.5H156.697V6.436Z" fill="white"/>
</svg>
