<svg width="156" height="156" viewBox="0 0 156 156" fill="none" xmlns="http://www.w3.org/2000/svg">
<path d="M2 54H154V148C154 151.314 151.314 154 148 154H8C4.68629 154 2 151.314 2 148V54Z" fill="white" stroke="black" stroke-width="4"/>
<path d="M4 52H152V148C152 150.209 150.209 152 148 152H8C5.79086 152 4 150.209 4 148V52Z" fill="white"/>
<path opacity="0.08" d="M4 52H152V148C152 150.209 150.209 152 148 152H8C5.79086 152 4 150.209 4 148V52Z" fill="#B1EBFF"/>
<path d="M74.6718 4.6225C76.6872 3.2789 79.3128 3.2789 81.3282 4.6225L152.394 52L81.3282 99.3775C79.3128 100.721 76.6872 100.721 74.6718 99.3775L3.60555 52L74.6718 4.6225Z" fill="#B1EBFF" stroke="black" stroke-width="4"/>
<path d="M28 2H128V67.9438L78 102.078L28 67.9438V2Z" fill="white" stroke="black" stroke-width="4"/>
<path d="M95.0451 45.89C95.0451 47.27 94.8801 48.635 94.5501 49.985C94.2201 51.335 93.7251 52.565 93.0651 53.675C92.4351 54.785 91.6401 55.67 90.6801 56.33C89.7201 56.96 88.5951 57.275 87.3051 57.275C86.2851 57.275 85.3401 57.02 84.4701 56.51C83.6301 55.97 83.0001 55.28 82.5801 54.44H82.2651C81.6651 55.19 80.9001 55.85 79.9701 56.42C79.0401 56.99 77.9601 57.275 76.7301 57.275C74.1801 57.275 72.2301 56.48 70.8801 54.89C69.5601 53.27 68.9001 51.155 68.9001 48.545C68.9001 46.535 69.3051 44.765 70.1151 43.235C70.9251 41.675 72.0951 40.46 73.6251 39.59C75.1551 38.69 77.0001 38.24 79.1601 38.24C80.5101 38.24 81.8751 38.375 83.2551 38.645C84.6351 38.885 85.7451 39.155 86.5851 39.455L86.1801 48.68C86.1501 48.98 86.1201 49.295 86.0901 49.625C86.0901 49.925 86.0901 50.12 86.0901 50.21C86.0901 51.44 86.2101 52.265 86.4501 52.685C86.7201 53.075 87.0351 53.27 87.3951 53.27C87.9651 53.27 88.4451 52.94 88.8351 52.28C89.2251 51.59 89.5251 50.69 89.7351 49.58C89.9451 48.44 90.0501 47.195 90.0501 45.845C90.0501 43.325 89.6001 41.195 88.7001 39.455C87.8301 37.685 86.5851 36.335 84.9651 35.405C83.3451 34.475 81.4251 34.01 79.2051 34.01C77.0451 34.01 75.1401 34.385 73.4901 35.135C71.8401 35.885 70.4601 36.935 69.3501 38.285C68.2401 39.635 67.4001 41.225 66.8301 43.055C66.2601 44.885 65.9751 46.88 65.9751 49.04C65.9751 51.74 66.4101 54.035 67.2801 55.925C68.1801 57.785 69.4851 59.195 71.1951 60.155C72.9051 61.115 75.0201 61.595 77.5401 61.595C79.1301 61.595 80.8551 61.4 82.7151 61.01C84.5751 60.62 86.2851 60.14 87.8451 59.57V63.8C86.4651 64.4 84.9051 64.88 83.1651 65.24C81.4551 65.6 79.6701 65.78 77.8101 65.78C74.2701 65.78 71.2251 65.12 68.6751 63.8C66.1551 62.48 64.2201 60.59 62.8701 58.13C61.5501 55.64 60.8901 52.655 60.8901 49.175C60.8901 46.445 61.3101 43.91 62.1501 41.57C63.0201 39.23 64.2501 37.19 65.8401 35.45C67.4301 33.68 69.3351 32.315 71.5551 31.355C73.8051 30.365 76.3251 29.87 79.1151 29.87C82.2651 29.87 85.0251 30.515 87.3951 31.805C89.7951 33.095 91.6701 34.94 93.0201 37.34C94.3701 39.74 95.0451 42.59 95.0451 45.89ZM74.1651 48.635C74.1651 50.285 74.4501 51.47 75.0201 52.19C75.6201 52.91 76.3851 53.27 77.3151 53.27C78.6051 53.27 79.5051 52.73 80.0151 51.65C80.5551 50.54 80.8851 49.1 81.0051 47.33L81.2301 42.47C80.9301 42.41 80.6301 42.365 80.3301 42.335C80.0301 42.275 79.7001 42.245 79.3401 42.245C78.1101 42.245 77.1051 42.56 76.3251 43.19C75.5751 43.79 75.0201 44.585 74.6601 45.575C74.3301 46.535 74.1651 47.555 74.1651 48.635Z" fill="black"/>
</svg>
