<svg width="24" height="20" viewBox="0 0 24 20" fill="none" xmlns="http://www.w3.org/2000/svg">
<path d="M24 2.55674C23.117 2.94836 22.168 3.21303 21.172 3.33207C22.1886 2.72266 22.9693 1.75771 23.3369 0.607965C22.3856 1.17217 21.3318 1.58196 20.2102 1.80283C19.312 0.845867 18.0323 0.247864 16.6162 0.247864C13.8968 0.247864 11.6921 2.45245 11.6921 5.17164C11.6921 5.55755 11.7358 5.93337 11.8197 6.29373C7.72742 6.0884 4.09929 4.12812 1.67076 1.14917C1.24692 1.87639 1.0041 2.72222 1.0041 3.62458C1.0041 5.33282 1.87346 6.83994 3.19464 7.7229C2.38745 7.69735 1.62827 7.47587 0.964337 7.10708C0.963986 7.12762 0.963986 7.14825 0.963986 7.16897C0.963986 9.55466 2.66125 11.5448 4.91377 11.9971C4.50056 12.1096 4.06558 12.1697 3.61646 12.1697C3.2992 12.1697 2.99072 12.1389 2.69014 12.0814C3.31667 14.0377 5.13508 15.4612 7.28972 15.501C5.60456 16.8216 3.48144 17.6087 1.17459 17.6087C0.777175 17.6087 0.385208 17.5855 0 17.54C2.17904 18.937 4.76726 19.7521 7.5479 19.7521C16.6047 19.7521 21.5572 12.2493 21.5572 5.74261C21.5572 5.52911 21.5525 5.31675 21.543 5.10563C22.505 4.41141 23.3398 3.54417 24 2.55674Z" fill="white"/>
</svg>
