<svg width="24" height="24" viewBox="0 0 24 24" fill="none" xmlns="http://www.w3.org/2000/svg">
<path d="M18 8.00101H17V6.00101C17 3.24101 14.76 1.00101 12 1.00101C9.24 1.00101 7 3.24101 7 6.00101V8.00101H6C4.9 8.00101 4 8.90101 4 10.001V20.001C4 21.101 4.9 22.001 6 22.001H18C19.1 22.001 20 21.101 20 20.001V10.001C20 8.90101 19.1 8.00101 18 8.00101ZM12 17.001C10.9 17.001 10 16.101 10 15.001C10 13.901 10.9 13.001 12 13.001C13.1 13.001 14 13.901 14 15.001C14 16.101 13.1 17.001 12 17.001ZM15.1 8.00101H8.9V6.00101C8.9 4.29101 10.29 2.90101 12 2.90101C13.71 2.90101 15.1 4.29101 15.1 6.00101V8.00101Z" fill="white" fill-opacity="0.74"/>
</svg>
