<svg width="39" height="36" viewBox="0 0 39 36" fill="none" xmlns="http://www.w3.org/2000/svg">
<path d="M19.5 8.72727H22.5833M19.5 14.9091H22.5833M7.16667 21.0909H22.5833M7.16667 27.2727H22.5833M28.75 8.72727H35.6875C36.964 8.72727 38 9.76582 38 11.0455V30.3636C38 31.5933 37.5127 32.7726 36.6454 33.642C35.778 34.5115 34.6016 35 33.375 35M28.75 8.72727V30.3636C28.75 31.5933 29.2373 32.7726 30.1046 33.642C30.972 34.5115 32.1484 35 33.375 35M28.75 8.72727V3.31818C28.75 2.03855 27.714 1 26.4375 1H3.3125C2.036 1 1 2.03855 1 3.31818V30.3636C1 31.5933 1.48728 32.7726 2.35463 33.642C3.22199 34.5115 4.39837 35 5.625 35H33.375" stroke="white" stroke-width="1.5" stroke-linecap="round" stroke-linejoin="round"/>
<path d="M17 10.2796C17 9.81092 16.9584 9.36596 16.8872 8.93286H10.1831V11.6086H14.0217C13.8496 12.4866 13.3453 13.2282 12.5978 13.7325V15.5124H14.8879C16.2287 14.2724 17 12.4451 17 10.2796Z" fill="#4285F4"/>
<path d="M10.1834 17.2388C12.1057 17.2388 13.7135 16.5981 14.8882 15.5124L12.5981 13.7325C11.9574 14.1597 11.1446 14.4207 10.1834 14.4207C8.32645 14.4207 6.75425 13.1689 6.19062 11.478H3.82935V13.3113C4.99812 15.637 7.40093 17.2388 10.1834 17.2388Z" fill="#34A853"/>
<path d="M6.19034 11.4781C6.04202 11.0509 5.96489 10.5941 5.96489 10.1194C5.96489 9.6448 6.04795 9.18797 6.19034 8.7608V6.92755H3.82906C3.34256 7.88867 3.06372 8.96845 3.06372 10.1194C3.06372 11.2704 3.34256 12.3502 3.82906 13.3113L6.19034 11.4781Z" fill="#FBBC05"/>
<path d="M10.1834 5.81811C11.2336 5.81811 12.1709 6.18001 12.9125 6.88602L14.9416 4.85698C13.7135 3.70601 12.1057 3 10.1834 3C7.40093 3 4.99812 4.60187 3.82935 6.92755L6.19062 8.76081C6.75424 7.06994 8.32645 5.81811 10.1834 5.81811Z" fill="#EA4335"/>
</svg>
