<svg width="90" height="16" viewBox="0 0 90 16" fill="none" xmlns="http://www.w3.org/2000/svg">
<rect width="90" height="16" rx="2" fill="#001F28"/>
<path d="M10.4998 10.6446L13.3323 12.3541L12.5807 9.13206L15.0832 6.96415L11.7878 6.68456L10.4998 3.64581L9.21192 6.68456L5.9165 6.96415L8.419 9.13206L7.66734 12.3541L10.4998 10.6446Z" fill="white"/>
<path d="M21.179 4.146C21.8097 4.146 22.3377 4.20833 22.763 4.333C23.1883 4.45767 23.5073 4.66667 23.72 4.96C23.9327 5.246 24.039 5.62733 24.039 6.104C24.039 6.412 23.984 6.687 23.874 6.929C23.7713 7.16367 23.621 7.36167 23.423 7.523C23.2323 7.677 23.0013 7.77967 22.73 7.831V7.886C23.0087 7.93733 23.2653 8.03267 23.5 8.172C23.7347 8.304 23.918 8.49833 24.05 8.755C24.1893 9.01167 24.259 9.34533 24.259 9.756C24.259 10.2327 24.1527 10.6397 23.94 10.977C23.7273 11.307 23.4267 11.56 23.038 11.736C22.6493 11.912 22.18 12 21.63 12H18.957V4.146H21.179ZM21.333 7.424C21.8903 7.424 22.2717 7.325 22.477 7.127C22.6823 6.929 22.785 6.63567 22.785 6.247C22.785 5.851 22.6603 5.56867 22.411 5.4C22.1617 5.23133 21.7657 5.147 21.223 5.147H20.178V7.424H21.333ZM20.178 8.392V11.01H21.454C22.026 11.01 22.4257 10.8853 22.653 10.636C22.8803 10.3867 22.994 10.0567 22.994 9.646C22.994 9.39667 22.9427 9.17667 22.84 8.986C22.7373 8.79533 22.5687 8.64867 22.334 8.546C22.1067 8.44333 21.795 8.392 21.399 8.392H20.178ZM30.4585 12H26.2675V4.146H30.4585V5.158H27.4885V7.402H30.2715V8.403H27.4885V10.977H30.4585V12ZM36.8266 9.877C36.8266 10.3463 36.7203 10.746 36.5076 11.076C36.295 11.406 35.9906 11.6627 35.5946 11.846C35.1986 12.022 34.7146 12.11 34.1426 12.11C33.864 12.11 33.5963 12.0917 33.3396 12.055C33.0903 12.0257 32.8593 11.9817 32.6466 11.923C32.4413 11.8643 32.247 11.791 32.0636 11.703V10.581C32.357 10.713 32.6906 10.834 33.0646 10.944C33.446 11.0467 33.8236 11.098 34.1976 11.098C34.5203 11.098 34.7843 11.0503 34.9896 10.955C35.2023 10.8597 35.36 10.7277 35.4626 10.559C35.5726 10.3903 35.6276 10.1923 35.6276 9.965C35.6276 9.723 35.5726 9.52133 35.4626 9.36C35.36 9.19133 35.1876 9.03733 34.9456 8.898C34.711 8.75133 34.3956 8.601 33.9996 8.447C33.633 8.30033 33.3103 8.128 33.0316 7.93C32.753 7.72467 32.5366 7.47533 32.3826 7.182C32.2286 6.88867 32.1516 6.52933 32.1516 6.104C32.1516 5.67133 32.2543 5.301 32.4596 4.993C32.665 4.685 32.951 4.45033 33.3176 4.289C33.6843 4.12033 34.1133 4.036 34.6046 4.036C35.0153 4.036 35.393 4.08 35.7376 4.168C36.0896 4.24867 36.416 4.36233 36.7166 4.509L36.3316 5.488C36.0456 5.36333 35.756 5.26067 35.4626 5.18C35.1693 5.09933 34.8723 5.059 34.5716 5.059C34.3076 5.059 34.084 5.103 33.9006 5.191C33.7246 5.279 33.589 5.4 33.4936 5.554C33.4056 5.708 33.3616 5.88767 33.3616 6.093C33.3616 6.335 33.413 6.53667 33.5156 6.698C33.6183 6.85933 33.7833 7.00967 34.0106 7.149C34.238 7.281 34.5386 7.42767 34.9126 7.589C35.3233 7.765 35.6716 7.952 35.9576 8.15C36.2436 8.34067 36.46 8.57533 36.6066 8.854C36.7533 9.12533 36.8266 9.46633 36.8266 9.877ZM41.3249 12H40.1149V5.169H37.9369V4.146H43.4919V5.169H41.3249V12ZM53.791 4.146L51.206 12H49.908L47.334 4.146H48.621L50.128 9.074C50.1867 9.25 50.2417 9.44067 50.293 9.646C50.3517 9.844 50.403 10.042 50.447 10.24C50.4983 10.438 50.535 10.625 50.557 10.801C50.5863 10.625 50.623 10.438 50.667 10.24C50.711 10.042 50.7623 9.844 50.821 9.646C50.8797 9.44067 50.9347 9.24633 50.986 9.063L52.493 4.146H53.791ZM59.4261 12L58.6891 9.734H55.8841L55.1471 12H53.8711L56.6321 4.113H57.9521L60.7021 12H59.4261ZM57.6441 6.489C57.6221 6.401 57.5854 6.28 57.5341 6.126C57.4901 5.96467 57.4461 5.79967 57.4021 5.631C57.3581 5.455 57.3178 5.30833 57.2811 5.191C57.2298 5.44033 57.1711 5.68233 57.1051 5.917C57.0464 6.14433 56.9951 6.335 56.9511 6.489L56.2251 8.7H58.3701L57.6441 6.489ZM62.1709 12V4.146H63.3919V10.977H66.5159V12H62.1709ZM73.9679 9.228C73.9679 9.77067 73.8579 10.262 73.6379 10.702C73.4252 11.1347 73.0989 11.4793 72.6589 11.736C72.2189 11.9853 71.6689 12.11 71.0089 12.11C70.0629 12.11 69.3405 11.846 68.8419 11.318C68.3505 10.7827 68.1049 10.0787 68.1049 9.206V4.146H69.3259V9.151C69.3259 9.79633 69.4689 10.284 69.7549 10.614C70.0409 10.9367 70.4735 11.098 71.0529 11.098C71.4562 11.098 71.7789 11.0173 72.0209 10.856C72.2702 10.6947 72.4535 10.471 72.5709 10.185C72.6882 9.89167 72.7469 9.54333 72.7469 9.14V4.146H73.9679V9.228ZM80.5103 12H76.3193V4.146H80.5103V5.158H77.5403V7.402H80.3233V8.403H77.5403V10.977H80.5103V12Z" fill="white"/>
</svg>
